<?xml version="1.0" encoding="utf-8"?>
<!-- Generator: Adobe Illustrator 16.0.2, SVG Export Plug-In . SVG Version: 6.00 Build 0)  -->
<!DOCTYPE svg PUBLIC "-//W3C//DTD SVG 1.1//EN" "http://www.w3.org/Graphics/SVG/1.1/DTD/svg11.dtd">
<svg version="1.1" id="圖層_1" focusable="false" xmlns="http://www.w3.org/2000/svg" xmlns:xlink="http://www.w3.org/1999/xlink"
	 x="0px" y="0px" width="612px" height="792px" viewBox="0 0 612 792" enable-background="new 0 0 612 792" xml:space="preserve">
<path fill="#685E40" d="M565.25,534.338C594.469,505.544,612,469.419,612,430c0-85-81.281-155.231-187.213-167.769
	C391.318,201.031,312.693,158,221,158C98.919,158,0,234.075,0,328c0,39.313,17.531,75.438,46.75,104.338
	c-16.256,32.618-39.631,57.906-40.056,58.331C0,497.787-1.913,508.2,2.019,517.231c3.825,9.031,12.75,14.875,22.525,14.875
	c56.844,0,102.744-21.463,133.025-41.226c9.775,2.231,19.869,3.932,30.175,5.207C221.106,557.075,299.412,600,391,600
	c22.1,0,43.35-2.55,63.537-7.225C484.818,612.432,530.612,634,587.563,634c9.775,0,18.594-5.844,22.525-14.875
	c3.824-9.031,2.019-19.443-4.676-26.563C604.987,592.244,581.506,566.956,565.25,534.338z M147.9,436.269l-18.168,11.794
	c-14.981,9.669-30.281,17.318-45.794,22.737c2.869-4.993,5.737-10.306,8.5-15.725l16.469-33.044L82.556,396
	C68.212,381.763,51,358.494,51,328c0-64.494,77.881-119,170-119c92.119,0,170,54.506,170,119s-77.881,119-170,119
	c-17.531,0-35.063-2.019-52.063-5.95L147.9,436.269L147.9,436.269z M529.443,498L503.2,523.925l16.469,33.044
	c2.763,5.419,5.631,10.731,8.5,15.725c-15.513-5.418-30.813-13.068-45.794-22.737l-18.169-11.794l-21.144,4.888
	c-17,3.932-34.531,5.95-52.063,5.95c-57.375,0-108.587-21.356-139.506-52.807C359.125,484.719,442,413.956,442,328
	c0-3.612-0.425-7.119-0.744-10.625C509.682,332.781,561,377.725,561,430C561,460.494,543.787,483.763,529.443,498z"/>
</svg>
