<?xml version="1.0" encoding="utf-8"?>
<!-- Generator: Adobe Illustrator 16.0.2, SVG Export Plug-In . SVG Version: 6.00 Build 0)  -->
<!DOCTYPE svg PUBLIC "-//W3C//DTD SVG 1.1//EN" "http://www.w3.org/Graphics/SVG/1.1/DTD/svg11.dtd">
<svg version="1.1" id="圖層_1" focusable="false" xmlns="http://www.w3.org/2000/svg" xmlns:xlink="http://www.w3.org/1999/xlink"
	 x="0px" y="0px" width="612px" height="792px" viewBox="0 0 612 792" enable-background="new 0 0 612 792" xml:space="preserve">
<path fill="#685E40" d="M231.806,574.648c-3.134-6.29-8.596-6.927-10.806-6.927s-7.671,0.627-10.646,6.576l-8.149,16.299
	c-6.769,13.579-26.595,12.081-31.323-2.221L153,534.752l-11.273,33.872C135.469,587.388,117.948,600,98.165,600H85
	c-9.393,0-17-7.607-17-17s7.607-17,17-17h13.165c5.132,0,9.679-3.272,11.305-8.139l19.327-58.055
	c3.506-10.424,13.217-17.436,24.204-17.436s20.697,7.001,24.193,17.436l14.747,44.242c20.984-17.202,57.439-10.307,70.125,15.045
	c2.008,4.017,5.833,6.322,9.945,6.651v-87.253l136-135.033V294H263.5c-14.025,0-25.5-11.475-25.5-25.5V124H25.5
	C11.369,124,0,135.369,0,149.5v493C0,656.631,11.369,668,25.5,668h357c14.131,0,25.5-11.369,25.5-25.5V600l-136-0.117
	C254.873,599.554,239.509,590.023,231.806,574.648z M408,253.519c0-6.693-2.656-13.175-7.438-17.956L296.544,131.438
	c-4.781-4.781-11.263-7.438-18.063-7.438H272v136h136V253.519z M306,492.645V566h73.302l171.785-172.954l-72.122-72.123L306,492.645
	z M604.074,301.788l-33.862-33.862c-10.562-10.561-27.699-10.561-38.261,0l-28.953,28.953l72.123,72.123l28.953-28.953
	C614.646,329.487,614.646,312.35,604.074,301.788L604.074,301.788z"/>
</svg>
