<?xml version="1.0" encoding="utf-8"?>
<!-- Generator: Adobe Illustrator 16.0.2, SVG Export Plug-In . SVG Version: 6.00 Build 0)  -->
<!DOCTYPE svg PUBLIC "-//W3C//DTD SVG 1.1//EN" "http://www.w3.org/Graphics/SVG/1.1/DTD/svg11.dtd">
<svg version="1.1" id="圖層_1" focusable="false" xmlns="http://www.w3.org/2000/svg" xmlns:xlink="http://www.w3.org/1999/xlink"
	 x="0px" y="0px" width="612px" height="792px" viewBox="0 0 612 792" enable-background="new 0 0 612 792" xml:space="preserve">
<path fill="#685E40" d="M355.5,210.375V0H46.125C25.552,0,9,16.552,9,37.125v717.75C9,775.448,25.552,792,46.125,792h519.75
	C586.448,792,603,775.448,603,754.875V247.5H392.625C372.206,247.5,355.5,230.794,355.5,210.375z M108,111.375
	C108,104.538,113.538,99,120.375,99h123.75c6.837,0,12.375,5.538,12.375,12.375v24.75c0,6.837-5.538,12.375-12.375,12.375h-123.75
	c-6.837,0-12.375-5.538-12.375-12.375V111.375z M108,210.375c0-6.837,5.538-12.375,12.375-12.375h123.75
	c6.837,0,12.375,5.538,12.375,12.375v24.75c0,6.837-5.538,12.375-12.375,12.375h-123.75c-6.837,0-12.375-5.538-12.375-12.375
	V210.375z M406.253,594h72.997c13.675,0,24.75,11.075,24.75,24.75s-11.075,24.75-24.75,24.75h-72.997
	c-25.446,0-48.371-14.139-59.771-36.908c-4.563-9.158-12.514-10.086-15.731-10.086s-11.168,0.913-15.5,9.575l-11.864,23.729
	c-4.19,8.385-12.762,13.68-22.136,13.674c-0.588,0-1.16-0.03-1.764-0.077c-9.977-0.696-18.563-7.348-21.703-16.846l-26.034-78.055
	l-16.412,49.313c-9.111,27.318-34.619,45.68-63.422,45.68H132.75c-13.674,0-24.75-11.075-24.75-24.75S119.076,594,132.75,594h19.166
	c7.471,0,14.092-4.765,16.458-11.849l28.138-84.521c5.104-15.175,19.243-25.385,35.238-25.385s30.133,10.194,35.222,25.385
	l21.471,64.412c30.582-25.044,83.609-15.005,102.094,21.903C393.661,590.226,399.756,594,406.253,594L406.253,594z M592.172,162.422
	L440.732,10.828C433.771,3.867,424.336,0,414.436,0H405v198h198v-9.436C603,178.819,599.133,169.383,592.172,162.422z"/>
</svg>
